<?xml version="1.0" encoding="utf-8"?>
<!-- Generator: Adobe Illustrator 19.0.0, SVG Export Plug-In . SVG Version: 6.00 Build 0)  -->
<svg version="1.1" id="Layer_1" xmlns="http://www.w3.org/2000/svg" xmlns:xlink="http://www.w3.org/1999/xlink" x="0px" y="0px"
	 viewBox="0 0 512 512" style="enable-background:new 0 0 512 512;" xml:space="preserve">
<g id="XMLID_1_">
	<path id="XMLID_5_" d="M256,52.1c54.9,0,106.1,21.4,144.3,59.6c38.2,39.1,59.6,90.3,59.6,144.3s-21.4,106.1-59.6,144.3
		c-39.1,38.2-90.3,59.6-144.3,59.6s-106.1-21.4-144.3-59.6C73.5,361.2,52.1,310,52.1,256s21.4-106.1,59.6-144.3
		C149.9,72.6,201.1,52.1,256,52.1 M256,0C114.5,0,0,114.5,0,256s114.5,256,256,256s256-114.5,256-256S397.5,0,256,0z"/>
	<polygon id="XMLID_6_" points="384.5,348.2 348.2,384.5 256,291.4 163.8,384.5 128.5,348.2 220.6,256 128.5,163.8 163.8,128.5 
		256,220.6 348.2,128.5 384.5,163.8 291.4,256 	"/>
</g>
</svg>
